<svg width="154" height="154" viewBox="0 0 154 154" fill="none" xmlns="http://www.w3.org/2000/svg">
<path d="M76.9999 0.874512C34.9613 0.874512 0.874939 34.9608 0.874939 76.9995C0.874939 119.038 34.9613 153.124 76.9999 153.124C119.039 153.124 153.125 119.038 153.125 76.9995C153.125 34.9608 119.039 0.874512 76.9999 0.874512ZM76.9999 140.21C42.098 140.21 13.789 111.901 13.789 76.9995C13.789 42.0976 42.098 13.7886 76.9999 13.7886C111.902 13.7886 140.211 42.0976 140.211 76.9995C140.211 111.901 111.902 140.21 76.9999 140.21Z" fill="white"/>
<path d="M112.238 74.8042L61.9241 38.271C61.5205 37.9752 61.0428 37.7973 60.5441 37.757C60.0453 37.7168 59.5452 37.8158 59.0995 38.0431C58.6538 38.2704 58.2799 38.617 58.0196 39.0442C57.7592 39.4715 57.6226 39.9627 57.625 40.463V113.529C57.625 115.755 60.1399 117.013 61.9241 115.721L112.238 79.1882C112.585 78.9379 112.868 78.6086 113.063 78.2275C113.258 77.8464 113.36 77.4244 113.36 76.9962C113.36 76.5681 113.258 76.146 113.063 75.7649C112.868 75.3838 112.585 75.0545 112.238 74.8042V74.8042ZM68.4661 97.5738V56.4187L96.792 76.9962L68.4661 97.5738V97.5738Z" fill="white"/>
</svg>
