<svg width="154" height="154" viewBox="0 0 154 154" fill="none" xmlns="http://www.w3.org/2000/svg">
<path d="M76.9999 0.874512C34.9613 0.874512 0.874939 34.9608 0.874939 76.9995C0.874939 119.038 34.9613 153.124 76.9999 153.124C119.039 153.124 153.125 119.038 153.125 76.9995C153.125 34.9608 119.039 0.874512 76.9999 0.874512ZM76.9999 140.21C42.098 140.21 13.789 111.901 13.789 76.9995C13.789 42.0976 42.098 13.7886 76.9999 13.7886C111.902 13.7886 140.211 42.0976 140.211 76.9995C140.211 111.901 111.902 140.21 76.9999 140.21Z" fill="white"/>
<rect x="58" y="39" width="12" height="77" rx="2" fill="white"/>
<rect x="86" y="39" width="12" height="77" rx="2" fill="white"/>
</svg>
